<svg xmlns="http://www.w3.org/2000/svg" xmlns:xlink="http://www.w3.org/1999/xlink" width="500" zoomAndPan="magnify" viewBox="0 0 375 374.999991" height="500" preserveAspectRatio="xMidYMid meet" version="1.0"><defs><clipPath id="b7c72166c3"><path d="M 146.269531 138.183594 L 312.566406 138.183594 L 312.566406 304.394531 L 146.269531 304.394531 Z M 146.269531 138.183594 " clip-rule="nonzero"/></clipPath><clipPath id="ec91a275b2"><path d="M 61.953125 138.183594 L 228.738281 138.183594 L 228.738281 304.394531 L 61.953125 304.394531 Z M 61.953125 138.183594 " clip-rule="nonzero"/></clipPath></defs><path fill="#18bcf2" d="M 13.863281 112.675781 C 4.367188 130.023438 4.367188 150.949219 4.367188 192.804688 L 4.367188 220.621094 C 4.367188 291.964844 4.367188 327.636719 25.792969 349.800781 C 47.222656 371.964844 81.707031 371.964844 150.679688 371.964844 L 223.835938 371.964844 C 292.808594 371.964844 327.296875 371.964844 348.722656 349.800781 C 370.148438 327.636719 370.148438 291.964844 370.148438 220.621094 L 370.148438 192.804688 C 370.148438 150.949219 370.148438 130.023438 360.652344 112.675781 C 351.15625 95.328125 333.808594 84.5625 299.113281 63.027344 L 262.535156 40.328125 C 225.859375 17.5625 207.519531 6.183594 187.257812 6.183594 C 166.996094 6.183594 148.65625 17.5625 111.980469 40.328125 L 75.402344 63.027344 C 40.707031 84.5625 23.359375 95.328125 13.863281 112.675781 Z M 13.863281 112.675781 " fill-opacity="1" fill-rule="evenodd"/><g clip-path="url(#b7c72166c3)"><path fill="#f8f8f9" d="M 311.992188 211.589844 L 311.96875 211.214844 C 306.957031 170.132812 271.855469 138.179688 229.457031 138.179688 C 217.855469 138.160156 206.382812 140.597656 195.792969 145.324219 C 207.339844 153.027344 216.976562 163.257812 223.976562 175.242188 C 225.792969 175.015625 227.625 174.898438 229.457031 174.894531 C 255.070312 174.886719 275.839844 195.640625 275.847656 221.253906 C 275.851562 230.0625 273.347656 238.683594 268.628906 246.121094 C 268.578125 246.171875 268.53125 246.246094 268.480469 246.292969 C 259.976562 259.617188 245.261719 267.683594 229.457031 267.679688 C 224.695312 267.644531 219.960938 266.910156 215.417969 265.496094 C 202.921875 261.507812 192.695312 252.425781 187.257812 240.488281 C 184.746094 235.074219 183.339844 229.210938 183.117188 223.25 L 183.117188 223.046875 C 183.066406 222.453125 183.066406 221.882812 183.066406 221.285156 C 183.066406 220.691406 183.066406 220.121094 183.117188 219.527344 L 183.117188 219.328125 C 182.242188 202.851562 170.882812 188.804688 154.960938 184.496094 C 144.933594 204.757812 143.605469 228.230469 151.285156 249.492188 C 152.34375 252.417969 153.5625 255.285156 154.933594 258.078125 C 162.125 272.550781 173.351562 284.632812 187.257812 292.859375 C 190.011719 294.492188 192.863281 295.960938 195.792969 297.25 C 196.832031 297.722656 197.902344 298.167969 198.96875 298.589844 L 198.992188 298.589844 C 199.011719 298.609375 199.039062 298.617188 199.066406 298.613281 L 199.066406 298.640625 C 199.105469 298.648438 199.152344 298.660156 199.191406 298.664062 C 199.25 298.671875 199.308594 298.6875 199.363281 298.714844 C 208.945312 302.488281 219.15625 304.414062 229.457031 304.394531 C 267.851562 304.355469 301.234375 278.054688 310.257812 240.738281 C 310.277344 240.683594 310.285156 240.621094 310.28125 240.5625 C 310.296875 240.550781 310.300781 240.535156 310.304688 240.515625 C 311.816406 234.214844 312.574219 227.761719 312.5625 221.285156 C 312.5625 218.046875 312.371094 214.808594 311.992188 211.589844 " fill-opacity="1" fill-rule="nonzero"/></g><g clip-path="url(#ec91a275b2)"><path fill="#f8f8f9" d="M 150.542969 267.332031 C 148.722656 267.558594 146.894531 267.675781 145.058594 267.679688 C 119.4375 267.710938 98.644531 246.964844 98.613281 221.34375 C 98.582031 195.71875 119.332031 174.925781 144.949219 174.894531 C 144.988281 174.894531 145.023438 174.894531 145.058594 174.894531 C 149.832031 174.925781 154.570312 175.664062 159.125 177.078125 C 171.609375 181.078125 181.824219 190.160156 187.257812 202.085938 C 189.746094 207.507812 191.152344 213.363281 191.402344 219.328125 C 191.414062 219.390625 191.414062 219.460938 191.402344 219.527344 C 191.449219 220.121094 191.449219 220.691406 191.449219 221.285156 C 191.449219 221.882812 191.449219 222.453125 191.402344 223.046875 C 191.414062 223.113281 191.414062 223.179688 191.402344 223.25 C 192.273438 239.730469 203.644531 253.78125 219.582031 258.078125 C 231.039062 234.894531 231.027344 207.695312 219.558594 184.519531 C 218.9375 183.257812 218.269531 181.992188 217.574219 180.75 L 216.65625 179.164062 C 216.257812 178.46875 215.8125 177.773438 215.390625 177.078125 C 208.316406 165.855469 198.675781 156.476562 187.257812 149.714844 C 186.066406 149.019531 184.878906 148.351562 183.660156 147.707031 C 183.640625 147.707031 183.625 147.695312 183.609375 147.679688 C 183.585938 147.679688 183.5625 147.65625 183.511719 147.632812 C 183.457031 147.609375 183.40625 147.574219 183.363281 147.53125 C 181.824219 146.761719 180.289062 146.019531 178.726562 145.324219 C 168.136719 140.589844 156.660156 138.152344 145.058594 138.179688 C 99.238281 138.179688 61.953125 175.46875 61.953125 221.285156 C 61.9375 231.378906 63.777344 241.382812 67.386719 250.808594 C 67.410156 250.855469 67.425781 250.90625 67.433594 250.957031 L 67.433594 250.980469 C 67.460938 251.03125 67.460938 251.082031 67.484375 251.105469 C 73.378906 266.308594 83.597656 279.457031 96.882812 288.914062 C 96.777344 288.867188 96.675781 288.808594 96.585938 288.738281 C 97.253906 289.238281 97.925781 289.734375 98.621094 290.203125 C 122.324219 306.191406 152.589844 308.855469 178.722656 297.25 C 167.183594 289.539062 157.546875 279.3125 150.542969 267.332031 " fill-opacity="1" fill-rule="nonzero"/></g></svg>